<mxfile host="65bd71144e">
    <diagram id="M50l7lPSS1-FYU264eV-" name="Page-1">
        <mxGraphModel dx="888" dy="1676" grid="1" gridSize="10" guides="1" tooltips="1" connect="1" arrows="1" fold="1" page="1" pageScale="1" pageWidth="827" pageHeight="1169" math="0" shadow="0">
            <root>
                <mxCell id="0"/>
                <mxCell id="1" parent="0"/>
                <mxCell id="2" value="&lt;div style=&quot;font-size: 16px&quot;&gt;&lt;font style=&quot;font-size: 16px&quot;&gt;&lt;u&gt;MVP for setting up the backend&lt;/u&gt;&lt;/font&gt;&lt;/div&gt;&lt;div style=&quot;font-size: 16px&quot;&gt;&lt;font style=&quot;font-size: 16px&quot;&gt;&lt;br&gt;&lt;/font&gt;&lt;/div&gt;&lt;div style=&quot;font-size: 16px&quot;&gt;&lt;font style=&quot;font-size: 16px&quot;&gt;User not logged in (public routes)&lt;/font&gt;&lt;/div&gt;&lt;ul style=&quot;font-size: 16px&quot;&gt;&lt;li&gt;&lt;font style=&quot;font-size: 16px&quot;&gt;User can register for the site&lt;/font&gt;&lt;/li&gt;&lt;li&gt;&lt;span&gt;&lt;font style=&quot;font-size: 16px&quot;&gt;User can view questions and answers&lt;/font&gt;&lt;/span&gt;&lt;/li&gt;&lt;li&gt;&lt;span&gt;&lt;font style=&quot;font-size: 16px&quot;&gt;User can login&lt;/font&gt;&lt;/span&gt;&lt;/li&gt;&lt;li&gt;&lt;span&gt;&lt;font style=&quot;font-size: 16px&quot;&gt;Anonymous user can vote on answers&lt;/font&gt;&lt;/span&gt;&lt;/li&gt;&lt;/ul&gt;&lt;div style=&quot;font-size: 16px&quot;&gt;&lt;font style=&quot;font-size: 16px&quot;&gt;&lt;br&gt;&lt;/font&gt;&lt;/div&gt;&lt;div style=&quot;font-size: 16px&quot;&gt;&lt;font style=&quot;font-size: 16px&quot;&gt;User logged in? (secure routes)&lt;/font&gt;&lt;/div&gt;&lt;ul style=&quot;font-size: 16px&quot;&gt;&lt;li&gt;&lt;font style=&quot;font-size: 16px&quot;&gt;User can post a question&lt;/font&gt;&lt;/li&gt;&lt;li&gt;&lt;font style=&quot;font-size: 16px&quot;&gt;User can post an answer a question&lt;/font&gt;&lt;/li&gt;&lt;li&gt;&lt;font style=&quot;font-size: 16px&quot;&gt;User can vote once on answers&lt;/font&gt;&lt;/li&gt;&lt;li&gt;&lt;font style=&quot;font-size: 16px&quot;&gt;User can delete their own question&lt;/font&gt;&lt;/li&gt;&lt;li&gt;&lt;font style=&quot;font-size: 16px&quot;&gt;Users can see and manage their profile (e.g. edit password, email address)&lt;/font&gt;&lt;/li&gt;&lt;/ul&gt;&lt;div style=&quot;font-size: 16px&quot;&gt;&lt;br&gt;&lt;/div&gt;&lt;div style=&quot;font-size: 16px&quot;&gt;&lt;font style=&quot;font-size: 16px&quot;&gt;Improvements&lt;/font&gt;&lt;/div&gt;&lt;div style=&quot;font-size: 16px&quot;&gt;&lt;ul&gt;&lt;li&gt;&lt;font style=&quot;font-size: 16px&quot;&gt;Hide rather delete (flag on Schema)&lt;/font&gt;&lt;/li&gt;&lt;li&gt;&lt;font style=&quot;font-size: 16px&quot;&gt;On sign-up user can select their favourite categories&lt;/font&gt;&lt;/li&gt;&lt;li&gt;Personalised home page after login shows filtered questions based on their favourite categories&lt;/li&gt;&lt;li&gt;&lt;font style=&quot;font-size: 16px&quot;&gt;Trending based on created dates within X time&lt;/font&gt;&lt;/li&gt;&lt;li&gt;&lt;font style=&quot;font-size: 16px&quot;&gt;Trending based on question category&lt;/font&gt;&lt;/li&gt;&lt;li&gt;&lt;font style=&quot;font-size: 16px&quot;&gt;User can post comments against a question&lt;/font&gt;&lt;/li&gt;&lt;li&gt;&lt;font style=&quot;font-size: 16px&quot;&gt;Users can add category tags to questions which can be searched&lt;/font&gt;&lt;/li&gt;&lt;li&gt;&lt;font style=&quot;font-size: 16px&quot;&gt;User can search questions or answers using free-text (react select)&lt;/font&gt;&lt;/li&gt;&lt;li&gt;&lt;font style=&quot;font-size: 16px&quot;&gt;User can search questions and answers using categories (react select)&lt;/font&gt;&lt;/li&gt;&lt;li&gt;Anonymous user can vote ONCE (using IP)&lt;/li&gt;&lt;li&gt;Moderator superuser (add / remove questions or answers even if not the owner)&lt;/li&gt;&lt;li&gt;Question owner can delete / hide / downvote answers to their question&lt;/li&gt;&lt;li&gt;Sockets rather than API calls for realtime updating&lt;/li&gt;&lt;li&gt;User can add image to their question&lt;/li&gt;&lt;/ul&gt;&lt;/div&gt;" style="text;html=1;resizable=0;autosize=1;align=left;verticalAlign=middle;points=[];fillColor=none;strokeColor=none;rounded=0;" parent="1" vertex="1">
                    <mxGeometry x="60" y="10" width="730" height="640" as="geometry"/>
                </mxCell>
                <mxCell id="TJlrSgWX0lVsQtNbsa3I-3" value="Design Decisions&lt;br&gt;&lt;br&gt;Bootstrap: yes for layout, nor for styling&amp;nbsp;" style="text;html=1;strokeColor=none;fillColor=none;align=center;verticalAlign=middle;whiteSpace=wrap;rounded=0;" parent="1" vertex="1">
                    <mxGeometry x="470" y="-60" width="320" height="30" as="geometry"/>
                </mxCell>
            </root>
        </mxGraphModel>
    </diagram>
</mxfile>